<svg xmlns="http://www.w3.org/2000/svg" viewBox="0 0 144 144">
  <!-- trumpet, horizontal — brass full colour flat -->
  <!-- leadpipe + tubing loop -->
  <path d="M28 72 L104 72" fill="none" stroke="#e0a91e" stroke-width="10" stroke-linecap="round"/>
  <path d="M28 72 L104 72" fill="none" stroke="#f4c542" stroke-width="3.5" stroke-linecap="round"/>
  <path d="M40 72 q0 -20 20 -20 q20 0 20 20" fill="none" stroke="#e0a91e" stroke-width="9"/>
  <path d="M40 72 q0 20 20 20 q20 0 20 -20" fill="none" stroke="#e0a91e" stroke-width="9"/>
  <!-- bell -->
  <path d="M104 72 q18 -20 26 -22 q4 -1 4 4 l0 36 q0 5 -4 4 q-8 -2 -26 -22 z" fill="#f4c542"/>
  <path d="M108 72 q14 -15 20 -17 l0 34 q-6 -2 -20 -17 z" fill="#e0a91e"/>
  <!-- mouthpiece -->
  <circle cx="26" cy="72" r="6" fill="#d0d0d0"/>
  <!-- valves -->
  <g>
    <rect x="52" y="44" width="9" height="30" rx="3" fill="#f4c542"/>
    <rect x="64" y="44" width="9" height="30" rx="3" fill="#f4c542"/>
    <rect x="76" y="44" width="9" height="30" rx="3" fill="#f4c542"/>
    <g fill="#c0392b"><circle cx="56.5" cy="42" r="4"/><circle cx="68.5" cy="42" r="4"/><circle cx="80.5" cy="42" r="4"/></g>
  </g>
</svg>
