<svg xmlns="http://www.w3.org/2000/svg" viewBox="0 0 144 144">
  <!-- left keyboard block -->
  <rect x="16" y="42" width="26" height="60" rx="5" fill="#b0271c"/>
  <rect x="16" y="42" width="26" height="8" rx="4" fill="#cf3a2c"/>
  <g fill="#f4f0e6"><rect x="21" y="54" width="16" height="7" rx="1.5"/><rect x="21" y="64" width="16" height="7" rx="1.5"/><rect x="21" y="74" width="16" height="7" rx="1.5"/><rect x="21" y="84" width="16" height="7" rx="1.5"/></g>
  <!-- bellows -->
  <path d="M42 44 l10 4 l-10 4 l10 4 l-10 4 l10 4 l-10 4 l10 4 l-10 4 l10 4 l-10 4 l10 4 l-10 4 l10 4" fill="none" stroke="#e8e4d8" stroke-width="2.5"/>
  <rect x="52" y="42" width="40" height="60" fill="#c9c4b4"/>
  <path d="M92 44 l-10 4 l10 4 l-10 4 l10 4 l-10 4 l10 4 l-10 4 l10 4 l-10 4 l10 4 l-10 4 l10 4 l-10 4" fill="none" stroke="#a8a396" stroke-width="2.5"/>
  <!-- right button block -->
  <rect x="102" y="42" width="26" height="60" rx="5" fill="#b0271c"/>
  <rect x="102" y="42" width="26" height="8" rx="4" fill="#cf3a2c"/>
  <g fill="#efe9dc"><circle cx="109" cy="58" r="2.6"/><circle cx="117" cy="58" r="2.6"/><circle cx="125" cy="58" r="2.6"/><circle cx="109" cy="68" r="2.6"/><circle cx="117" cy="68" r="2.6"/><circle cx="125" cy="68" r="2.6"/><circle cx="109" cy="78" r="2.6"/><circle cx="117" cy="78" r="2.6"/><circle cx="125" cy="78" r="2.6"/><circle cx="113" cy="88" r="2.6"/><circle cx="121" cy="88" r="2.6"/></g>
</svg>
