<svg xmlns="http://www.w3.org/2000/svg" viewBox="0 0 144 144">
  <!-- two joined conical bells -->
  <path d="M40 44 q22 -6 30 22 l-8 24 q-2 6 -8 6 q-6 0 -8 -6 l-14 -38 q-2 -6 8 -8 z" fill="#e0a91e"/>
  <path d="M44 48 q14 -4 20 18 l-6 18 -12 -32 z" fill="#f4c542"/>
  <path d="M74 58 q22 -6 30 20 l-8 30 q-2 6 -8 6 q-6 0 -8 -6 l-12 -42 q-2 -6 6 -8 z" fill="#d99a1c"/>
  <path d="M78 62 q14 -4 20 16 l-6 24 -12 -34 z" fill="#e0b64a"/>
  <!-- U bracket joining -->
  <path d="M50 46 q22 -18 40 12" fill="none" stroke="#8a6a2a" stroke-width="5"/>
  <!-- stick -->
  <line x1="30" y1="112" x2="96" y2="70" stroke="#7a5a2a" stroke-width="4" stroke-linecap="round"/>
</svg>
