<svg xmlns="http://www.w3.org/2000/svg" viewBox="0 0 144 144">
  <!-- two clapping hands -->
  <g transform="rotate(-18 60 74)"><path d="M40 58 q-8 0 -8 10 l0 20 q0 12 16 14 l18 2 q10 1 12 -8 l4 -22 q1 -8 -7 -9 q-6 -1 -8 5 l-2 8 0 -22 q0 -7 -7 -7 q-6 0 -6 7 l0 14 -2 -14 q-1 -8 -8 -8 q-6 0 -6 8 l1 14 -1 -8 q-1 -6 -6 -6 z" fill="#e8a06a"/></g>
  <g transform="rotate(18 84 74) scale(-1 1) translate(-144 0)"><path d="M40 58 q-8 0 -8 10 l0 20 q0 12 16 14 l18 2 q10 1 12 -8 l4 -22 q1 -8 -7 -9 q-6 -1 -8 5 l-2 8 0 -22 q0 -7 -7 -7 q-6 0 -6 7 l0 14 -2 -14 q-1 -8 -8 -8 q-6 0 -6 8 l1 14 -1 -8 q-1 -6 -6 -6 z" fill="#d68f56"/></g>
  <!-- motion marks -->
  <g stroke="#f2c14e" stroke-width="3" stroke-linecap="round"><line x1="72" y1="30" x2="72" y2="20"/><line x1="52" y1="34" x2="46" y2="26"/><line x1="92" y1="34" x2="98" y2="26"/></g>
</svg>
