<svg xmlns="http://www.w3.org/2000/svg" viewBox="0 0 144 144">
  <!-- tartan bag -->
  <path d="M46 68 q-8 34 22 40 q34 4 40 -22 q4 -20 -14 -30 q-30 -16 -48 12 z" fill="#b0271c"/>
  <path d="M46 68 q-8 34 22 40 q34 4 40 -22 q4 -20 -14 -30 q-30 -16 -48 12 z" fill="#a83226"/>
  <g stroke="#2f6e4f" stroke-width="3" opacity="0.7"><line x1="52" y1="60" x2="70" y2="112"/><line x1="70" y1="56" x2="88" y2="110"/><line x1="88" y1="58" x2="102" y2="100"/><line x1="40" y1="80" x2="106" y2="70"/><line x1="42" y1="94" x2="108" y2="84"/></g>
  <!-- drones up -->
  <g><rect x="74" y="14" width="7" height="42" rx="3" fill="#6b4322"/><rect x="86" y="20" width="7" height="38" rx="3" fill="#6b4322"/><rect x="98" y="26" width="7" height="34" rx="3" fill="#6b4322"/>
  <circle cx="77.5" cy="14" r="5" fill="#e8d3a0"/><circle cx="89.5" cy="20" r="5" fill="#e8d3a0"/><circle cx="101.5" cy="26" r="5" fill="#e8d3a0"/></g>
  <!-- blowpipe + chanter -->
  <rect x="34" y="44" width="6" height="26" rx="3" fill="#6b4322" transform="rotate(-30 37 57)"/>
  <rect x="66" y="100" width="6" height="30" rx="3" fill="#5a3418"/>
</svg>
