<svg xmlns="http://www.w3.org/2000/svg" viewBox="0 0 144 144">
  <path d="M64 40 l16 0 0 16 8 14 q6 10 6 24 l0 20 q0 8 -8 8 l-28 0 q-8 0 -8 -8 l0 -20 q0 -14 6 -24 l8 -14 z" fill="#3f8f5a" opacity="0.9"/>
  <path d="M64 40 l6 0 0 18 -6 12 q-6 10 -6 22 l0 20 6 0 z" fill="#5fb07a" opacity="0.7"/>
  <rect x="62" y="30" width="20" height="12" rx="2" fill="#2f6e46"/>
  <rect x="62" y="26" width="20" height="6" rx="2" fill="#7a5a2a"/>
  <!-- breath / sound -->
  <g fill="none" stroke="#bfe3cf" stroke-width="3" stroke-linecap="round"><path d="M40 40 q-10 4 0 10"/><path d="M34 52 q-12 4 0 10"/></g>
  <circle cx="86" cy="24" r="4" fill="#f2d05a"/><path d="M86 24 l0 -12" stroke="#f2d05a" stroke-width="2.5"/>
</svg>
