<svg xmlns="http://www.w3.org/2000/svg" viewBox="0 0 144 144">
  <!-- two trumpets fanned = section -->
  <g transform="rotate(-14 60 72)" opacity="0.9">
    <path d="M20 74 L92 74" stroke="#cfa93a" stroke-width="8" stroke-linecap="round"/>
    <path d="M92 74 q16 -16 22 -18 q4 -1 4 4 l0 30 q0 5 -4 4 q-6 -2 -22 -20 z" fill="#e0b64a"/>
    <g fill="#e0b64a"><rect x="44" y="52" width="7" height="24" rx="3"/><rect x="54" y="52" width="7" height="24" rx="3"/><rect x="64" y="52" width="7" height="24" rx="3"/></g>
  </g>
  <g transform="rotate(12 78 80)">
    <path d="M28 84 L104 84" stroke="#e0a91e" stroke-width="9" stroke-linecap="round"/>
    <path d="M28 84 L104 84" stroke="#f4c542" stroke-width="3" stroke-linecap="round"/>
    <path d="M104 84 q18 -18 26 -20 q4 -1 4 4 l0 34 q0 5 -4 4 q-8 -2 -26 -22 z" fill="#f4c542"/>
    <path d="M108 84 q14 -14 20 -16 l0 32 q-6 -2 -20 -16 z" fill="#e0a91e"/>
    <g fill="#f4c542"><rect x="56" y="60" width="8" height="26" rx="3"/><rect x="67" y="60" width="8" height="26" rx="3"/><rect x="78" y="60" width="8" height="26" rx="3"/></g>
    <g fill="#c0392b"><circle cx="60" cy="58" r="3.4"/><circle cx="71" cy="58" r="3.4"/><circle cx="82" cy="58" r="3.4"/></g>
  </g>
</svg>
