<svg xmlns="http://www.w3.org/2000/svg" viewBox="0 0 144 144">
  <rect x="67" y="14" width="10" height="44" rx="3" fill="#5a3418"/>
  <rect x="69" y="14" width="6" height="44" fill="#6b3f1d"/>
  <path d="M72 10 q-9 -2 -9 8 q0 7 8 6 q5 -1 4 -7 z" fill="#4a2a12"/>
  <g fill="#2e1a0c"><rect x="60" y="24" width="6" height="3" rx="1.5"/><rect x="78" y="24" width="6" height="3" rx="1.5"/><rect x="60" y="32" width="6" height="3" rx="1.5"/><rect x="78" y="32" width="6" height="3" rx="1.5"/></g>
  <path d="M72 54 C 98 54 104 74 98 88 C 95 96 98 102 101 110 C 106 124 94 138 72 138 C 50 138 38 124 43 110 C 46 102 49 96 46 88 C 40 74 46 54 72 54 Z" fill="#8a4a1e"/>
  <path d="M72 60 C 94 60 99 76 94 88 C 91 96 94 102 97 109 C 101 121 91 132 72 132 C 53 132 43 121 47 109 C 50 102 53 96 50 88 C 45 76 50 60 72 60 Z" fill="#a55d28"/>
  <path d="M62 86 q-3 10 1 20" fill="none" stroke="#3a2010" stroke-width="2.4" stroke-linecap="round"/>
  <path d="M82 86 q3 10 -1 20" fill="none" stroke="#3a2010" stroke-width="2.4" stroke-linecap="round"/>
  <path d="M69 114 h6 v14 l-3 4 -3 -4 z" fill="#2e1a0c"/>
  <rect x="70" y="138" width="4" height="4" fill="#8a8a90"/>
</svg>
