<svg xmlns="http://www.w3.org/2000/svg" viewBox="0 0 144 144">
  <!-- three singing figures -->
  <g>
    <circle cx="40" cy="66" r="14" fill="#e0a06a"/><path d="M22 118 q0 -26 18 -26 q18 0 18 26 z" fill="#3a6ea5"/><ellipse cx="40" cy="70" rx="4" ry="5" fill="#5a2a1a"/>
    <circle cx="104" cy="66" r="14" fill="#c98a52"/><path d="M86 118 q0 -26 18 -26 q18 0 18 26 z" fill="#c0553b"/><ellipse cx="104" cy="70" rx="4" ry="5" fill="#5a2a1a"/>
    <circle cx="72" cy="54" r="16" fill="#f0b884"/><path d="M50 116 q0 -30 22 -30 q22 0 22 30 z" fill="#4aa06a"/><ellipse cx="72" cy="58" rx="4.5" ry="6" fill="#5a2a1a"/>
  </g>
  <path d="M118 30 l0 20 M118 30 l10 -3 l0 20" fill="none" stroke="#f2c14e" stroke-width="3" stroke-linecap="round"/><circle cx="115" cy="52" r="4" fill="#f2c14e"/><circle cx="125" cy="49" r="4" fill="#f2c14e"/>
</svg>
