<svg xmlns="http://www.w3.org/2000/svg" viewBox="0 0 144 144">
  <g transform="rotate(-14 72 72)">
    <!-- mouthpiece -->
    <path d="M68 16 l8 0 -1 10 -6 0 z" fill="#1a1a1a"/>
    <rect x="67" y="24" width="10" height="6" rx="2" fill="#c9a24a"/>
    <!-- body -->
    <rect x="66" y="30" width="12" height="76" rx="3" fill="#141414"/>
    <rect x="68" y="30" width="4" height="76" fill="#2a2a2a"/>
    <!-- flared bell -->
    <path d="M62 106 q0 14 10 18 q10 -4 10 -18 z" fill="#1a1a1a"/>
    <path d="M64 108 q1 11 8 14 q7 -3 8 -14 z" fill="#2a2a2a"/>
    <!-- silver keys -->
    <g fill="#d6d8dc" stroke="#8a8c90" stroke-width="0.8"><circle cx="72" cy="42" r="3.2"/><circle cx="72" cy="52" r="3.2"/><circle cx="72" cy="62" r="3.2"/><circle cx="72" cy="72" r="3.2"/><circle cx="72" cy="82" r="3.2"/><circle cx="72" cy="92" r="3.2"/></g>
  </g>
</svg>
