<svg xmlns="http://www.w3.org/2000/svg" viewBox="0 0 144 144">
  <!-- upright bass, big body -->
  <rect x="67" y="12" width="10" height="46" rx="3" fill="#5a3418"/>
  <rect x="69" y="12" width="6" height="46" fill="#6b3f1d"/>
  <path d="M72 8 q-9 -2 -9 8 q0 7 8 6 q5 -1 4 -7 z" fill="#4a2a12"/>
  <g fill="#2e1a0c"><rect x="60" y="24" width="6" height="3" rx="1.5"/><rect x="78" y="24" width="6" height="3" rx="1.5"/><rect x="60" y="32" width="6" height="3" rx="1.5"/><rect x="78" y="32" width="6" height="3" rx="1.5"/></g>
  <path d="M72 52 C 100 52 106 72 100 86 C 97 94 100 100 103 108 C 108 122 96 138 72 138 C 48 138 36 122 41 108 C 44 100 47 94 44 86 C 38 72 44 52 72 52 Z" fill="#8a4a1e"/>
  <path d="M72 58 C 96 58 101 74 96 86 C 93 94 96 100 99 107 C 103 119 93 132 72 132 C 51 132 41 119 45 107 C 48 100 51 94 48 86 C 43 74 48 58 72 58 Z" fill="#a55d28"/>
  <path d="M62 84 q-3 9 1 18" fill="none" stroke="#3a2010" stroke-width="2.4" stroke-linecap="round"/>
  <path d="M82 84 q3 9 -1 18" fill="none" stroke="#3a2010" stroke-width="2.4" stroke-linecap="round"/>
  <path d="M69 112 h6 v14 l-3 4 -3 -4 z" fill="#2e1a0c"/>
  <g stroke="#e8e8e8" stroke-width="1"><line x1="69" y1="14" x2="70" y2="120"/><line x1="71.5" y1="14" x2="72" y2="120"/><line x1="74" y1="14" x2="74" y2="120"/></g>
</svg>
