<svg xmlns="http://www.w3.org/2000/svg" viewBox="0 0 144 144">
  <rect x="16" y="40" width="112" height="64" rx="8" fill="#2a2c33"/>
  <rect x="16" y="40" width="112" height="16" rx="8" fill="#c0392b"/>
  <!-- knobs -->
  <g fill="#e0e2e6"><circle cx="30" cy="48" r="4"/><circle cx="46" cy="48" r="4"/><circle cx="62" cy="48" r="4"/></g>
  <!-- small screen -->
  <rect x="92" y="44" width="28" height="10" rx="2" fill="#69e069"/>
  <!-- 16 step buttons (2 rows) -->
  <g>
    <g fill="#e8a53a"><rect x="24" y="64" width="10" height="8" rx="2"/><rect x="38" y="64" width="10" height="8" rx="2"/><rect x="52" y="64" width="10" height="8" rx="2"/><rect x="66" y="64" width="10" height="8" rx="2"/><rect x="80" y="64" width="10" height="8" rx="2"/><rect x="94" y="64" width="10" height="8" rx="2"/><rect x="108" y="64" width="10" height="8" rx="2"/></g>
    <g fill="#d8484a"><rect x="24" y="80" width="10" height="8" rx="2"/><rect x="38" y="80" width="10" height="8" rx="2"/><rect x="52" y="80" width="10" height="8" rx="2"/><rect x="66" y="80" width="10" height="8" rx="2"/><rect x="80" y="80" width="10" height="8" rx="2"/><rect x="94" y="80" width="10" height="8" rx="2"/><rect x="108" y="80" width="10" height="8" rx="2"/></g>
    <g fill="#e8c23a"><rect x="24" y="92" width="94" height="8" rx="2"/></g>
  </g>
</svg>
