<svg xmlns="http://www.w3.org/2000/svg" viewBox="0 0 144 144">
  <g transform="rotate(35 72 72)">
    <rect x="67" y="10" width="10" height="72" fill="#3a2214"/>
    <rect x="69" y="10" width="6" height="72" fill="#4a2e1a"/>
    <path d="M64 6 h16 v10 h-16 z" fill="#241309"/>
    <g fill="#d8d8d8"><circle cx="62" cy="8" r="2.2"/><circle cx="62" cy="14" r="2.2"/><circle cx="82" cy="8" r="2.2"/><circle cx="82" cy="14" r="2.2"/></g>
    <!-- body: warm natural wood, big lower bout -->
    <path d="M72 76 C 46 76 40 98 46 116 C 51 130 62 136 72 136 C 82 136 93 130 98 116 C 104 98 98 76 72 76 Z" fill="#d99a4e"/>
    <path d="M72 80 C 50 80 45 100 50 116 C 55 129 63 133 72 133 C 81 133 89 129 94 116 C 99 100 94 80 72 80 Z" fill="#e8b25e"/>
    <circle cx="72" cy="106" r="10" fill="#3a2414"/>
    <circle cx="72" cy="106" r="10" fill="none" stroke="#c98a42" stroke-width="1.5"/>
    <rect x="66" y="120" width="12" height="5" rx="1.5" fill="#3a2414"/>
    <g stroke="#efe6d0" stroke-width="0.7"><line x1="69" y1="12" x2="69" y2="120"/><line x1="72" y1="12" x2="72" y2="120"/><line x1="75" y1="12" x2="75" y2="120"/></g>
  </g>
</svg>
