<svg xmlns="http://www.w3.org/2000/svg" viewBox="0 0 144 144">
  <!-- pillar (left column) -->
  <path d="M34 118 L34 28 q0 -6 6 -6 q6 0 6 6 z" fill="#c9a44e"/>
  <!-- curved neck (top) -->
  <path d="M40 22 q40 6 66 26 q6 4 -2 6 q-30 -14 -64 -20 z" fill="#d9b968"/>
  <!-- soundboard (right, angled) -->
  <path d="M34 118 L104 56 q6 -4 8 4 l4 54 q1 6 -6 6 z" fill="#8a5a2e"/>
  <path d="M40 114 L102 60 l3 48 z" fill="#a06b38"/>
  <!-- strings -->
  <g stroke="#efe6c8" stroke-width="1.1">
    <line x1="44" y1="30" x2="46" y2="112"/><line x1="54" y1="34" x2="58" y2="112"/><line x1="64" y1="39" x2="70" y2="112"/><line x1="74" y1="44" x2="82" y2="112"/><line x1="84" y1="49" x2="94" y2="112"/><line x1="94" y1="55" x2="104" y2="112"/>
  </g>
</svg>
