<svg xmlns="http://www.w3.org/2000/svg" viewBox="0 0 144 144">
  <rect x="30" y="30" width="84" height="86" rx="14" fill="#8a5a2e"/>
  <rect x="34" y="34" width="76" height="78" rx="11" fill="#a06b38"/>
  <circle cx="72" cy="86" r="10" fill="#4a2a12"/>
  <!-- bridge bar -->
  <rect x="40" y="52" width="64" height="7" rx="3" fill="#3a2414"/>
  <!-- metal tines of varied length, center longest -->
  <g fill="#cfd2d6">
    <rect x="45" y="40" width="5" height="26" rx="2"/>
    <rect x="53" y="40" width="5" height="32" rx="2"/>
    <rect x="61" y="40" width="5" height="38" rx="2"/>
    <rect x="69" y="40" width="5" height="44" rx="2"/>
    <rect x="77" y="40" width="5" height="38" rx="2"/>
    <rect x="85" y="40" width="5" height="32" rx="2"/>
    <rect x="93" y="40" width="5" height="26" rx="2"/>
  </g>
  <g fill="#eef0f2"><rect x="45" y="40" width="5" height="5" rx="2"/><rect x="53" y="40" width="5" height="5" rx="2"/><rect x="61" y="40" width="5" height="5" rx="2"/><rect x="69" y="40" width="5" height="5" rx="2"/><rect x="77" y="40" width="5" height="5" rx="2"/><rect x="85" y="40" width="5" height="5" rx="2"/><rect x="93" y="40" width="5" height="5" rx="2"/></g>
</svg>
