<svg xmlns="http://www.w3.org/2000/svg" viewBox="0 0 144 144">
  <g fill="#d8b755">
    <rect x="26" y="46" width="12" height="66" rx="4"/>
    <rect x="42" y="34" width="12" height="78" rx="4"/>
    <rect x="58" y="26" width="12" height="86" rx="4"/>
    <rect x="74" y="26" width="12" height="86" rx="4"/>
    <rect x="90" y="34" width="12" height="78" rx="4"/>
    <rect x="106" y="46" width="12" height="66" rx="4"/>
  </g>
  <g fill="#b8963a">
    <rect x="26" y="46" width="4" height="66" rx="2"/><rect x="42" y="34" width="4" height="78" rx="2"/><rect x="58" y="26" width="4" height="86" rx="2"/><rect x="74" y="26" width="4" height="86" rx="2"/><rect x="90" y="34" width="4" height="78" rx="2"/><rect x="106" y="46" width="4" height="66" rx="2"/>
  </g>
  <g fill="#7a5a1e"><rect x="27" y="104" width="10" height="6"/><rect x="43" y="104" width="10" height="6"/><rect x="59" y="104" width="10" height="6"/><rect x="75" y="104" width="10" height="6"/><rect x="91" y="104" width="10" height="6"/><rect x="107" y="104" width="10" height="6"/></g>
  <rect x="22" y="110" width="100" height="12" rx="3" fill="#5a4018"/>
</svg>
