<svg xmlns="http://www.w3.org/2000/svg" viewBox="0 0 144 144">
  <rect x="26" y="24" width="92" height="14" rx="4" fill="#7a4a2a"/>
  <rect x="30" y="34" width="84" height="76" rx="4" fill="#5a3418"/>
  <rect x="30" y="34" width="84" height="76" rx="4" fill="none"/>
  <rect x="38" y="42" width="30" height="28" rx="2" fill="#3e2411"/>
  <rect x="76" y="42" width="30" height="28" rx="2" fill="#3e2411"/>
  <rect x="30" y="88" width="84" height="22" rx="2" fill="#f6f6f1"/>
  <g fill="#17130f"><rect x="38" y="88" width="4" height="13"/><rect x="47" y="88" width="4" height="13"/><rect x="61" y="88" width="4" height="13"/><rect x="70" y="88" width="4" height="13"/><rect x="79" y="88" width="4" height="13"/><rect x="93" y="88" width="4" height="13"/><rect x="102" y="88" width="4" height="13"/></g>
  <rect x="34" y="110" width="76" height="8" rx="2" fill="#4a2a12"/>
  <rect x="44" y="118" width="10" height="8" fill="#2e1a0c"/><rect x="90" y="118" width="10" height="8" fill="#2e1a0c"/>
</svg>
