<svg xmlns="http://www.w3.org/2000/svg" viewBox="0 0 144 144">
  <!-- MPC-style -->
  <rect x="22" y="30" width="100" height="84" rx="10" fill="#2b2d34"/>
  <!-- screen + knobs -->
  <rect x="30" y="38" width="46" height="16" rx="2" fill="#3a5f8a"/>
  <g fill="#c9ccd2"><circle cx="92" cy="44" r="5"/><circle cx="110" cy="44" r="5"/></g>
  <!-- 4x4 pads -->
  <g fill="#4a4d56" stroke="#6a6e78" stroke-width="1">
    <rect x="30" y="62" width="18" height="12" rx="2"/><rect x="52" y="62" width="18" height="12" rx="2"/><rect x="74" y="62" width="18" height="12" rx="2"/><rect x="96" y="62" width="18" height="12" rx="2"/>
    <rect x="30" y="78" width="18" height="12" rx="2"/><rect x="52" y="78" width="18" height="12" rx="2"/><rect x="74" y="78" width="18" height="12" rx="2"/><rect x="96" y="78" width="18" height="12" rx="2"/>
    <rect x="30" y="94" width="18" height="12" rx="2"/><rect x="52" y="94" width="18" height="12" rx="2"/><rect x="74" y="94" width="18" height="12" rx="2"/><rect x="96" y="94" width="18" height="12" rx="2"/>
  </g>
  <rect x="52" y="62" width="18" height="12" rx="2" fill="#e8743b"/>
  <rect x="96" y="78" width="18" height="12" rx="2" fill="#3ee0c8"/>
</svg>
