<svg xmlns="http://www.w3.org/2000/svg" viewBox="0 0 144 144">
  <!-- alto saxophone — brass, full colour flat -->
  <!-- mouthpiece + neck -->
  <path d="M52 18 q10 -6 18 2" fill="none" stroke="#1a1a1a" stroke-width="7" stroke-linecap="round"/>
  <path d="M66 20 q14 6 16 26" fill="none" stroke="#d99a1c" stroke-width="9" stroke-linecap="round"/>
  <!-- main body tube -->
  <path d="M82 46 L88 96" fill="none" stroke="#e0a91e" stroke-width="14" stroke-linecap="round"/>
  <path d="M80 46 L86 92" fill="none" stroke="#f4c542" stroke-width="5" stroke-linecap="round"/>
  <!-- U bend -->
  <path d="M88 96 q4 22 -18 22 q-18 0 -18 -18" fill="none" stroke="#e0a91e" stroke-width="14" stroke-linecap="round"/>
  <!-- bell going up -->
  <path d="M52 100 L52 66 q0 -8 -6 -10" fill="none" stroke="#e0a91e" stroke-width="14" stroke-linecap="round"/>
  <path d="M46 58 q-10 -3 -16 4 q-4 5 2 9 q10 5 20 -1 z" fill="#f4c542"/>
  <path d="M44 60 q-8 -2 -13 4 q-2 4 2 6 q8 4 15 -1 z" fill="#e0a91e"/>
  <!-- keys -->
  <g fill="#f7d774" stroke="#9c6b12" stroke-width="1">
    <circle cx="83" cy="56" r="3.4"/><circle cx="84" cy="66" r="3.4"/><circle cx="85" cy="76" r="3.4"/><circle cx="86" cy="86" r="3.4"/>
    <circle cx="57" cy="72" r="3.2"/><circle cx="57" cy="82" r="3.2"/><circle cx="57" cy="92" r="3.2"/>
  </g>
</svg>
