<svg xmlns="http://www.w3.org/2000/svg" viewBox="0 0 144 144">
  <g transform="rotate(34 72 72)">
    <rect x="66" y="8" width="10" height="84" rx="2" fill="#3a2412"/>
    <rect x="68" y="8" width="6" height="84" fill="#4a2e18"/>
    <!-- bent-back pegbox -->
    <path d="M64 6 h14 v10 l-4 6 -10 0 z" fill="#241309"/>
    <g fill="#d8c9a8"><rect x="60" y="12" width="8" height="3" rx="1.5"/><rect x="76" y="12" width="8" height="3" rx="1.5"/><rect x="60" y="20" width="8" height="3" rx="1.5"/></g>
    <!-- square skin body -->
    <rect x="48" y="92" width="48" height="44" rx="6" fill="#5a3418"/>
    <rect x="54" y="98" width="36" height="32" rx="3" fill="#f2ede0"/>
    <rect x="68" y="120" width="8" height="10" fill="#2e1a0c"/>
    <g stroke="#cfc4a0" stroke-width="0.9"><line x1="69" y1="10" x2="70" y2="126"/><line x1="72" y1="10" x2="72" y2="126"/><line x1="75" y1="10" x2="74" y2="126"/></g>
  </g>
</svg>
