<svg xmlns="http://www.w3.org/2000/svg" viewBox="0 0 144 144">
  <!-- classic mono analog synth (Minimoog vibe) -->
  <path d="M20 52 L124 52 L124 100 L20 100 Z" fill="#2a2a30"/>
  <!-- wood cheeks -->
  <rect x="14" y="48" width="10" height="56" rx="3" fill="#6b4322"/>
  <rect x="120" y="48" width="10" height="56" rx="3" fill="#6b4322"/>
  <!-- sloped control panel -->
  <path d="M28 34 L116 34 L124 52 L20 52 Z" fill="#1c1c22"/>
  <g fill="#c9ccd2"><circle cx="40" cy="43" r="4"/><circle cx="56" cy="43" r="4"/><circle cx="72" cy="43" r="4"/><circle cx="88" cy="43" r="4"/><circle cx="104" cy="43" r="4"/></g>
  <g stroke="#2a2a30" stroke-width="1.4"><line x1="40" y1="39" x2="40" y2="43"/><line x1="56" y1="47" x2="56" y2="43"/><line x1="72" y1="40" x2="72" y2="43"/><line x1="88" y1="46" x2="88" y2="43"/><line x1="104" y1="41" x2="104" y2="43"/></g>
  <!-- keyboard -->
  <rect x="20" y="82" width="104" height="18" rx="2" fill="#ece8df"/>
  <g fill="#1c1c22"><rect x="27" y="82" width="3.5" height="11"/><rect x="37" y="82" width="3.5" height="11"/><rect x="52" y="82" width="3.5" height="11"/><rect x="62" y="82" width="3.5" height="11"/><rect x="72" y="82" width="3.5" height="11"/><rect x="87" y="82" width="3.5" height="11"/><rect x="97" y="82" width="3.5" height="11"/><rect x="112" y="82" width="3.5" height="11"/></g>
  <!-- pitch/mod wheels -->
  <rect x="16" y="82" width="6" height="14" rx="3" fill="#3ee0c8"/>
</svg>
