<svg xmlns="http://www.w3.org/2000/svg" viewBox="0 0 144 144">
  <rect x="14" y="46" width="116" height="34" rx="4" fill="#26262c"/>
  <g fill="#3a3a44"><circle cx="24" cy="54" r="4"/><circle cx="36" cy="54" r="4"/><circle cx="48" cy="54" r="4"/></g>
  <rect x="70" y="50" width="52" height="20" rx="2" fill="#0f2a2a"/>
  <path d="M74 68 L82 52 L82 68 L90 52 L90 68 L98 52 L98 68 L106 52 L106 68 L114 52" fill="none" stroke="#3ee0c8" stroke-width="2"/>
  <rect x="14" y="78" width="116" height="16" rx="2" fill="#e6e6e6"/>
  <g fill="#26262c"><rect x="22" y="78" width="3.5" height="10"/><rect x="32" y="78" width="3.5" height="10"/><rect x="47" y="78" width="3.5" height="10"/><rect x="57" y="78" width="3.5" height="10"/><rect x="67" y="78" width="3.5" height="10"/><rect x="82" y="78" width="3.5" height="10"/><rect x="92" y="78" width="3.5" height="10"/><rect x="107" y="78" width="3.5" height="10"/><rect x="117" y="78" width="3.5" height="10"/></g>
  <rect x="16" y="80" width="6" height="12" rx="2" fill="#3ee0c8"/>
</svg>
