<svg xmlns="http://www.w3.org/2000/svg" viewBox="0 0 144 144">
  <!-- stand -->
  <path d="M36 118 L48 92 M108 118 L96 92" stroke="#3a2412" stroke-width="6" stroke-linecap="round"/>
  <!-- barrel body -->
  <path d="M40 58 q0 -8 32 -8 q32 0 32 8 l0 34 q0 8 -32 8 q-32 0 -32 -8 z" fill="#8a2f1e"/>
  <path d="M44 60 q0 -6 28 -6 q28 0 28 6 l0 30 q0 6 -28 6 q-28 0 -28 -6 z" fill="#a5382a"/>
  <!-- head -->
  <ellipse cx="72" cy="58" rx="32" ry="10" fill="#f2ead2"/>
  <ellipse cx="72" cy="58" rx="32" ry="10" fill="none" stroke="#c9a24a" stroke-width="3"/>
  <!-- tacks -->
  <g fill="#c9a24a"><circle cx="46" cy="66" r="2"/><circle cx="46" cy="80" r="2"/><circle cx="98" cy="66" r="2"/><circle cx="98" cy="80" r="2"/></g>
  <!-- bachi sticks -->
  <line x1="60" y1="52" x2="30" y2="30" stroke="#c9a86a" stroke-width="5" stroke-linecap="round"/>
  <line x1="84" y1="52" x2="114" y2="30" stroke="#c9a86a" stroke-width="5" stroke-linecap="round"/>
</svg>
