<svg xmlns="http://www.w3.org/2000/svg" viewBox="0 0 144 144">
  <!-- retro handset -->
  <g transform="rotate(-20 72 72)">
    <path d="M40 60 q0 -14 32 -14 q32 0 32 14 q0 6 -8 6 q-8 0 -9 -5 q-1 -4 -15 -4 q-14 0 -15 4 q-1 5 -9 5 q-8 0 -8 -6 z" fill="#c0392b"/>
    <rect x="34" y="54" width="16" height="16" rx="4" fill="#a02f22"/>
    <rect x="94" y="54" width="16" height="16" rx="4" fill="#a02f22"/>
    <path d="M50 66 q22 30 44 0" fill="none" stroke="#c0392b" stroke-width="9" stroke-linecap="round"/>
  </g>
  <!-- ring waves -->
  <g fill="none" stroke="#f2c14e" stroke-width="3" stroke-linecap="round"><path d="M108 40 q10 6 8 18"/><path d="M116 32 q16 10 12 30"/></g>
</svg>
