<svg xmlns="http://www.w3.org/2000/svg" viewBox="0 0 144 144">
  <!-- small hand bell -->
  <path d="M52 90 q-4 -34 20 -40 q24 -6 20 34 q-1 8 6 12 l-52 0 q7 -4 6 -6 z" fill="#e0b64a"/>
  <path d="M58 88 q-2 -28 14 -33 q16 -5 14 27 q0 6 4 10 l-48 0 q6 -4 2 -4 z" fill="#f4d06a"/>
  <rect x="66" y="40" width="12" height="8" rx="3" fill="#c99a2e"/>
  <path d="M72 40 q-6 -6 0 -12 q6 6 0 12" fill="#c99a2e"/>
  <circle cx="72" cy="108" r="5" fill="#b8863a"/>
  <!-- sparkles -->
  <path d="M104 34 l2 6 6 2 -6 2 -2 6 -2 -6 -6 -2 6 -2 z" fill="#f2d05a"/>
  <path d="M36 52 l1.5 5 5 1.5 -5 1.5 -1.5 5 -1.5 -5 -5 -1.5 5 -1.5 z" fill="#f2d05a"/>
</svg>
