<svg xmlns="http://www.w3.org/2000/svg" viewBox="0 0 144 144">
  <rect x="24" y="26" width="96" height="8" rx="3" fill="#5a3a22"/>
  <line x1="30" y1="24" x2="30" y2="120" stroke="#6b4a2a" stroke-width="4"/>
  <line x1="114" y1="24" x2="114" y2="120" stroke="#6b4a2a" stroke-width="4"/>
  <g fill="#d8c26a" stroke="#a8903c" stroke-width="1">
    <rect x="40" y="34" width="9" height="82" rx="4"/>
    <rect x="55" y="34" width="9" height="74" rx="4"/>
    <rect x="70" y="34" width="9" height="66" rx="4"/>
    <rect x="85" y="34" width="9" height="58" rx="4"/>
    <rect x="100" y="34" width="9" height="50" rx="4"/>
  </g>
  <g fill="#e6d488"><rect x="40" y="34" width="3.5" height="82" rx="2"/><rect x="55" y="34" width="3.5" height="74" rx="2"/><rect x="70" y="34" width="3.5" height="66" rx="2"/><rect x="85" y="34" width="3.5" height="58" rx="2"/><rect x="100" y="34" width="3.5" height="50" rx="2"/></g>
  <line x1="60" y1="66" x2="30" y2="58" stroke="#7a5a2a" stroke-width="3" stroke-linecap="round"/><rect x="24" y="52" width="10" height="8" rx="3" fill="#c0392b"/>
</svg>
