<svg xmlns="http://www.w3.org/2000/svg" viewBox="0 0 144 144">
  <g transform="rotate(16 72 72)">
    <rect x="66" y="12" width="11" height="52" rx="3" fill="#5a2e14"/>
    <rect x="68" y="12" width="7" height="52" fill="#6b3818"/>
    <path d="M72 8 q-10 -2 -10 9 q0 8 9 6 q6 -1 5 -8 z" fill="#48230f"/>
    <g fill="#2a160a"><rect x="59" y="26" width="6" height="3" rx="1.5"/><rect x="79" y="26" width="6" height="3" rx="1.5"/><rect x="59" y="34" width="6" height="3" rx="1.5"/><rect x="79" y="34" width="6" height="3" rx="1.5"/></g>
    <path d="M72 56 C 95 56 99 72 95 82 C 92 89 95 94 97 101 C 101 114 92 130 72 130 C 52 130 43 114 47 101 C 49 94 52 89 49 82 C 45 72 49 56 72 56 Z" fill="#7a3d16"/>
    <path d="M72 62 C 92 62 95 74 91 83 C 88 90 91 95 93 101 C 96 112 88 124 72 124 C 56 124 48 112 51 101 C 53 95 56 90 53 83 C 49 74 52 62 72 62 Z" fill="#994e1e"/>
    <path d="M62 86 q-3 9 1 17" fill="none" stroke="#2a160a" stroke-width="2.4" stroke-linecap="round"/>
    <path d="M82 86 q3 9 -1 17" fill="none" stroke="#2a160a" stroke-width="2.4" stroke-linecap="round"/>
    <path d="M69 108 h6 v13 l-3 4 -3 -4 z" fill="#2a160a"/>
  </g>
</svg>
