<svg xmlns="http://www.w3.org/2000/svg" viewBox="0 0 144 144">
  <!-- microphone -->
  <rect x="26" y="34" width="20" height="42" rx="10" fill="#3a3d44"/>
  <g stroke="#6a6e78" stroke-width="1.4"><line x1="28" y1="44" x2="44" y2="44"/><line x1="28" y1="52" x2="44" y2="52"/><line x1="28" y1="60" x2="44" y2="60"/></g>
  <rect x="33" y="76" width="6" height="16" fill="#6a6e78"/><rect x="24" y="92" width="24" height="5" rx="2" fill="#6a6e78"/>
  <!-- arrow -->
  <path d="M52 60 l14 0 M62 55 l6 5 -6 5" fill="none" stroke="#f2c14e" stroke-width="3" stroke-linecap="round" stroke-linejoin="round"/>
  <!-- vocoder band bars (robot voice) -->
  <rect x="74" y="40" width="52" height="60" rx="6" fill="#20222a"/>
  <g fill="#3ee0c8"><rect x="80" y="70" width="6" height="20" rx="1"/><rect x="90" y="58" width="6" height="32" rx="1"/><rect x="100" y="64" width="6" height="26" rx="1"/><rect x="110" y="52" width="6" height="38" rx="1"/><rect x="118" y="66" width="4" height="24" rx="1"/></g>
  <g fill="#b47cf0" opacity="0.5"><rect x="80" y="62" width="6" height="6" rx="1"/><rect x="90" y="50" width="6" height="6" rx="1"/><rect x="100" y="56" width="6" height="6" rx="1"/><rect x="110" y="44" width="6" height="6" rx="1"/></g>
</svg>
